<?xml version="1.0" standalone="no"?>
<!DOCTYPE svg PUBLIC "-//W3C//DTD SVG 20010904//EN"
 "http://www.w3.org/TR/2001/REC-SVG-20010904/DTD/svg10.dtd">
<svg version="1.0" xmlns="http://www.w3.org/2000/svg"
 width="1920.000000pt" height="1080.000000pt" viewBox="0 0 1920.000000 1080.000000"
 preserveAspectRatio="xMidYMid meet">

<g transform="translate(0.000000,1080.000000) scale(0.100000,-0.100000)"
fill="#000000" stroke="none">
<path d="M8350 8003 c-25 -9 -261 -153 -315 -192 -98 -70 -181 -144 -263 -234
-82 -90 -232 -283 -269 -344 -10 -17 -48 -81 -85 -142 -36 -60 -79 -141 -94
-178 -58 -146 -126 -352 -145 -443 -20 -94 -49 -345 -49 -427 0 -36 -4 -45
-27 -57 -45 -24 -151 -118 -179 -160 -151 -222 -172 -341 -153 -854 6 -177 8
-317 3 -322 -5 -4 -39 -17 -76 -30 -103 -33 -136 -89 -124 -211 8 -90 29 -150
81 -230 81 -125 160 -182 286 -203 l70 -12 29 -58 c16 -31 52 -86 79 -121 l50
-63 -26 -73 c-14 -41 -27 -101 -30 -134 -7 -110 32 -138 127 -90 29 15 54 24
56 22 5 -5 12 -668 14 -1252 0 -276 -3 -378 -20 -540 -66 -646 -101 -814 -264
-1257 -19 -54 -54 -160 -76 -235 -23 -76 -43 -144 -45 -150 -4 -10 573 -13
2860 -13 2639 0 2865 1 2865 16 0 18 -44 131 -117 304 -57 133 -173 336 -322
560 -63 96 -125 193 -136 215 -12 22 -26 49 -32 60 -6 11 -20 40 -33 65 -12
25 -28 56 -35 70 -47 87 -198 538 -230 683 -13 61 -37 173 -54 247 -31 140
-48 236 -55 311 -3 24 -10 98 -17 164 -9 82 -13 318 -13 752 l0 631 37 41 c37
41 42 57 37 121 -3 43 -8 53 -71 136 -50 64 -52 71 -60 150 -10 97 -14 121
-34 209 -9 36 -13 70 -11 74 3 5 47 29 99 55 190 94 300 235 363 465 27 95 31
221 11 281 -16 47 -71 74 -145 72 -74 -2 -128 -21 -254 -91 -123 -69 -213
-104 -253 -99 -31 3 -38 19 -49 106 -4 26 -11 68 -17 94 -10 45 -9 50 18 85
46 60 59 84 103 186 45 106 85 253 99 367 5 41 15 113 22 160 10 67 10 119 1
240 -7 85 -12 182 -11 215 1 81 -57 300 -111 420 -10 22 -31 70 -48 107 -43
96 -84 151 -150 201 -111 85 -225 127 -347 127 -146 0 -235 -64 -323 -228 -46
-87 -96 -235 -107 -317 -4 -28 -16 -60 -27 -72 -16 -17 -19 -30 -14 -60 19
-107 19 -112 -3 -139 -24 -31 -28 -86 -6 -104 17 -14 22 -135 5 -145 -5 -3
-10 -28 -10 -54 0 -37 5 -52 24 -70 46 -43 41 -117 -8 -106 -86 18 -285 68
-303 75 -15 6 -23 18 -23 33 0 59 -139 184 -258 233 -43 18 -76 24 -138 24
-96 0 -119 -13 -155 -88 -12 -26 -33 -64 -46 -85 l-24 -38 -200 2 c-124 2
-205 6 -214 13 -10 8 -15 54 -20 176 -7 187 -11 195 -79 187 -65 -9 -235 -101
-319 -173 -75 -64 -169 -189 -225 -301 -27 -52 -68 -85 -101 -81 -22 3 -26 8
-25 33 3 56 39 135 77 171 30 29 37 42 37 73 0 25 -7 44 -20 56 -25 22 -25 34
0 115 14 46 29 74 55 97 37 34 44 63 24 107 -17 37 -2 114 27 141 38 36 58 92
43 126 -12 31 -24 37 -33 17 -5 -13 -1 18 9 65 2 12 20 33 40 46 30 20 35 29
35 62 0 27 -6 42 -20 52 -23 16 -19 40 12 70 22 22 24 60 3 77 -19 16 -19 30
-1 30 20 0 27 26 16 56 -6 14 -10 43 -10 64 0 51 -27 70 -95 69 -27 0 -57 -3
-65 -6z m3055 -1233 c3 -5 1 -10 -4 -10 -6 0 -11 5 -11 10 0 6 2 10 4 10 3 0
8 -4 11 -10z m-14 -143 c-1 -12 -15 -9 -19 4 -3 6 1 10 8 8 6 -3 11 -8 11 -12z
m-21 -112 c0 -8 -2 -15 -4 -15 -2 0 -6 7 -10 15 -3 8 -1 15 4 15 6 0 10 -7 10
-15z m60 -65 c0 -5 -2 -10 -4 -10 -3 0 -8 5 -11 10 -3 6 -1 10 4 10 6 0 11 -4
11 -10z m-63 -177 c-3 -10 -5 -2 -5 17 0 19 2 27 5 18 2 -10 2 -26 0 -35z
m-962 -113 c3 -5 -1 -10 -9 -10 -9 0 -16 5 -16 10 0 6 4 10 9 10 6 0 13 -4 16
-10z m105 -32 c0 -12 -14 -10 -28 4 -19 19 -14 29 8 16 11 -7 20 -16 20 -20z
m-165 4 c-3 -3 -11 0 -18 7 -9 10 -8 11 6 5 10 -3 15 -9 12 -12z m263 -4 c18
-18 15 -27 -9 -25 -27 2 -48 37 -21 37 10 0 23 -5 30 -12z m161 -7 c9 -6 10
-11 2 -15 -13 -8 -31 1 -31 15 0 11 11 11 29 0z m-349 -21 c0 -5 -4 -10 -10
-10 -5 0 -10 5 -10 10 0 6 5 10 10 10 6 0 10 -4 10 -10z m311 -18 c12 -11 18
-22 13 -25 -13 -7 -56 14 -62 31 -6 18 23 15 49 -6z m616 -14 c-3 -7 -5 -2 -5
12 0 14 2 19 5 13 2 -7 2 -19 0 -25z m-456 -5 c13 -16 12 -17 -3 -4 -10 7 -18
15 -18 17 0 8 8 3 21 -13z m-381 -13 c0 -5 -2 -10 -4 -10 -3 0 -8 5 -11 10 -3
6 -1 10 4 10 6 0 11 -4 11 -10z m750 0 c0 -5 -5 -10 -11 -10 -5 0 -7 5 -4 10
3 6 8 10 11 10 2 0 4 -4 4 -10z m-377 -15 c8 -18 -11 -31 -25 -17 -11 11 -3
32 12 32 4 0 10 -7 13 -15z m-528 -5 c3 -5 1 -10 -4 -10 -6 0 -11 5 -11 10 0
6 2 10 4 10 3 0 8 -4 11 -10z m315 -35 c0 -6 -32 6 -48 18 -10 8 -10 12 -1 17
10 7 49 -21 49 -35z m145 35 c3 -5 1 -10 -4 -10 -6 0 -11 5 -11 10 0 6 2 10 4
10 3 0 8 -4 11 -10z m141 -75 c4 -8 3 -23 0 -32 -6 -15 -8 -15 -16 -3 -13 20
-12 50 0 50 6 0 13 -7 16 -15z m-221 -5 c3 -5 2 -10 -4 -10 -5 0 -13 5 -16 10
-3 6 -2 10 4 10 5 0 13 -4 16 -10z m170 -68 c-8 -8 -25 17 -25 38 0 9 6 6 16
-8 9 -13 13 -26 9 -30z m-805 28 c0 -5 -2 -10 -4 -10 -3 0 -8 5 -11 10 -3 6
-1 10 4 10 6 0 11 -4 11 -10z m1150 -11 c0 -11 -4 -18 -10 -14 -5 3 -7 12 -3
20 7 21 13 19 13 -6z m-224 -25 c-4 -9 -9 -15 -11 -12 -3 3 -3 13 1 22 4 9 9
15 11 12 3 -3 3 -13 -1 -22z m-859 -48 c29 -14 54 -33 57 -44 4 -11 22 -37 41
-58 19 -21 35 -44 35 -51 0 -7 5 -13 10 -13 6 0 10 -7 10 -15 0 -8 4 -15 8
-15 5 0 15 -19 22 -41 8 -23 21 -51 31 -63 22 -29 52 -123 46 -147 -3 -10 -2
-21 3 -24 10 -6 10 -54 -1 -61 -5 -3 -9 -13 -9 -22 -1 -27 -53 -90 -112 -134
-51 -39 -181 -108 -203 -108 -11 0 -12 137 -1 147 3 4 2 11 -3 17 -5 6 -12 36
-16 66 -7 59 -25 110 -38 110 -5 0 -7 8 -6 18 3 25 -21 71 -43 78 -10 3 -25
18 -33 33 -28 55 -234 91 -278 49 -20 -20 -37 -23 -37 -7 0 5 -5 7 -11 3 -10
-6 -29 11 -29 26 0 3 42 49 93 102 55 58 103 99 120 103 15 4 27 10 27 14 0
11 90 50 125 54 87 11 141 6 192 -17z m889 -82 c-10 -26 -24 -14 -21 19 2 17
4 34 5 37 1 3 2 9 1 14 -1 5 1 16 6 25 9 18 17 -73 9 -95z m-741 75 c11 -17
-1 -21 -15 -4 -8 9 -8 15 -2 15 6 0 14 -5 17 -11z m39 -45 c5 -14 4 -15 -9 -4
-17 14 -19 20 -6 20 5 0 12 -7 15 -16z m657 -44 c-4 -20 -10 -30 -14 -23 -7
11 10 70 18 62 2 -2 0 -20 -4 -39z m-52 -18 c0 -24 -1 -25 -9 -7 -12 28 -12
47 0 40 6 -3 10 -18 9 -33z m-202 -54 c-3 -8 -6 -5 -6 6 -1 11 2 17 5 13 3 -3
4 -12 1 -19z m346 -18 c3 -11 1 -23 -4 -26 -5 -3 -9 6 -9 20 0 31 6 34 13 6z
m-33 -26 c0 -8 -5 -12 -10 -9 -6 4 -8 11 -5 16 9 14 15 11 15 -7z m765 -34 c3
-5 2 -10 -4 -10 -5 0 -13 5 -16 10 -3 6 -2 10 4 10 5 0 13 -4 16 -10z m-725
-21 c0 -5 -4 -9 -10 -9 -5 0 -10 7 -10 16 0 8 5 12 10 9 6 -3 10 -10 10 -16z
m-3613 -52 c18 -10 45 -34 60 -54 15 -21 34 -42 41 -46 28 -18 60 -61 55 -73
-6 -17 -39 -18 -49 -3 -3 6 -9 7 -13 2 -8 -11 -58 -33 -77 -33 -8 0 -37 -22
-63 -49 -56 -57 -90 -142 -81 -201 4 -21 0 -44 -7 -56 -11 -17 -11 -28 -2 -50
10 -26 15 -61 22 -144 1 -14 7 -32 12 -40 5 -8 10 -17 10 -20 4 -28 23 -52 65
-79 28 -18 50 -36 50 -41 0 -5 7 -6 17 -3 11 4 14 3 9 -5 -9 -15 -77 -27 -85
-15 -3 6 -16 13 -28 17 -13 4 -26 18 -29 32 -4 14 -13 24 -24 24 -19 0 -57 37
-47 46 4 4 -1 20 -10 35 -17 29 -33 38 -33 18 0 -5 -5 -7 -10 -4 -6 4 -9 19
-7 33 4 27 -15 57 -27 44 -4 -3 -4 1 -1 10 4 9 2 19 -4 23 -13 8 -14 42 -2 47
5 2 12 17 16 33 5 25 4 27 -5 12 -14 -22 -30 -13 -23 13 3 12 -2 29 -12 40
-10 12 -13 20 -7 20 7 0 21 9 32 20 11 11 16 20 10 20 -5 0 -10 9 -10 20 0 11
5 20 12 20 9 0 9 3 0 12 -7 7 -12 22 -12 35 0 13 -5 23 -11 23 -8 0 -10 -14
-5 -42 5 -40 5 -41 -9 -24 -22 28 -19 52 10 74 14 11 25 25 25 31 0 6 6 11 13
11 7 0 6 4 -4 10 -18 10 -15 61 4 57 5 -1 17 29 25 66 15 68 16 69 44 63 21
-4 28 -2 28 10 0 9 5 12 12 8 6 -4 8 -3 4 4 -3 6 0 16 7 24 7 7 16 21 20 30 8
21 47 19 94 -5z m3617 8 c-4 -8 -10 -12 -15 -9 -11 6 -2 24 11 24 5 0 7 -7 4
-15z m676 -10 c20 -24 6 -28 -15 -5 -10 11 -13 20 -8 20 6 0 16 -7 23 -15z
m-150 -29 c0 -3 -4 -8 -10 -11 -5 -3 -10 -1 -10 4 0 6 5 11 10 11 6 0 10 -2
10 -4z m105 -33 c-8 -36 -20 -47 -39 -40 -35 14 -9 66 33 67 9 0 11 -8 6 -27z
m69 -57 c-3 -14 -10 -26 -15 -26 -11 0 -11 3 1 36 13 33 23 26 14 -10z m-169
14 c3 -5 1 -10 -4 -10 -6 0 -11 5 -11 10 0 6 2 10 4 10 3 0 8 -4 11 -10z
m-145 -30 c0 -5 -4 -10 -10 -10 -5 0 -10 5 -10 10 0 6 5 10 10 10 6 0 10 -4
10 -10z m240 -90 c0 -5 -5 -10 -11 -10 -5 0 -7 5 -4 10 3 6 8 10 11 10 2 0 4
-4 4 -10z m-70 -20 c0 -5 -2 -10 -4 -10 -3 0 -8 5 -11 10 -3 6 -1 10 4 10 6 0
11 -4 11 -10z m-585 -20 c3 -5 1 -10 -4 -10 -6 0 -11 5 -11 10 0 6 2 10 4 10
3 0 8 -4 11 -10z m-1593 -162 c-7 -7 -12 -8 -12 -2 0 14 12 26 19 19 2 -3 -1
-11 -7 -17z m-12 -33 c0 -5 -5 -3 -10 5 -5 8 -10 20 -10 25 0 6 5 3 10 -5 5
-8 10 -19 10 -25z m-2280 -75 c0 -5 -5 -10 -11 -10 -5 0 -7 5 -4 10 3 6 8 10
11 10 2 0 4 -4 4 -10z m10 -64 c0 -11 -19 -15 -25 -6 -3 5 1 10 9 10 9 0 16
-2 16 -4z m-10 -36 c0 -5 -4 -10 -10 -10 -5 0 -10 5 -10 10 0 6 5 10 10 10 6
0 10 -4 10 -10z m3586 -58 c-18 -16 -18 -16 -6 6 6 13 14 21 18 18 3 -4 -2
-14 -12 -24z"/>
</g>
</svg>
